<svg width="63" height="58" viewBox="0 0 63 58" fill="none" xmlns="http://www.w3.org/2000/svg">
<path d="M21 14.2891L5.82812 29.4609L21 44.6328V47.4609L3 29.4609L21 11.4609V14.2891ZM59.9219 29.4609L42 47.3828V44.5547L57.0938 29.4609L42 14.3672V11.5391L59.9219 29.4609Z" fill="#3B82F6"/>
<path d="M21 14.2891L22.0607 15.3497L22.5 14.9104V14.2891H21ZM5.82812 29.4609L4.76746 28.4003L3.7068 29.4609L4.76746 30.5216L5.82812 29.4609ZM21 44.6328H22.5V44.0115L22.0607 43.5722L21 44.6328ZM21 47.4609L19.9393 48.5216L22.5 51.0823V47.4609H21ZM3 29.4609L1.93934 28.4003L0.87868 29.4609L1.93934 30.5216L3 29.4609ZM21 11.4609H22.5V7.83962L19.9393 10.4003L21 11.4609ZM59.9219 29.4609L60.9825 30.5216L62.0432 29.4609L60.9825 28.4003L59.9219 29.4609ZM42 47.3828H40.5V51.0041L43.0607 48.4435L42 47.3828ZM42 44.5547L40.9393 43.494L40.5 43.9334V44.5547H42ZM57.0938 29.4609L58.1544 30.5216L59.2151 29.4609L58.1544 28.4003L57.0938 29.4609ZM42 14.3672H40.5V14.9885L40.9393 15.4278L42 14.3672ZM42 11.5391L43.0607 10.4784L40.5 7.91774V11.5391H42ZM21 14.2891L19.9393 13.2284L4.76746 28.4003L5.82812 29.4609L6.88879 30.5216L22.0607 15.3497L21 14.2891ZM5.82812 29.4609L4.76746 30.5216L19.9393 45.6935L21 44.6328L22.0607 43.5722L6.88879 28.4003L5.82812 29.4609ZM21 44.6328H19.5V47.4609H21H22.5V44.6328H21ZM21 47.4609L22.0607 46.4003L4.06066 28.4003L3 29.4609L1.93934 30.5216L19.9393 48.5216L21 47.4609ZM3 29.4609L4.06066 30.5216L22.0607 12.5216L21 11.4609L19.9393 10.4003L1.93934 28.4003L3 29.4609ZM21 11.4609H19.5V14.2891H21H22.5V11.4609H21ZM59.9219 29.4609L58.8612 28.4003L40.9393 46.3222L42 47.3828L43.0607 48.4435L60.9825 30.5216L59.9219 29.4609ZM42 47.3828H43.5V44.5547H42H40.5V47.3828H42ZM42 44.5547L43.0607 45.6153L58.1544 30.5216L57.0938 29.4609L56.0331 28.4003L40.9393 43.494L42 44.5547ZM57.0938 29.4609L58.1544 28.4003L43.0607 13.3065L42 14.3672L40.9393 15.4278L56.0331 30.5216L57.0938 29.4609ZM42 14.3672H43.5V11.5391H42H40.5V14.3672H42ZM42 11.5391L40.9393 12.5997L58.8612 30.5216L59.9219 29.4609L60.9825 28.4003L43.0607 10.4784L42 11.5391Z" fill="#3B82F6"/>
<path d="M36.9609 16.793C36.9609 15.6884 36.0655 14.793 34.9609 14.793H28C26.8954 14.793 26 15.6884 26 16.793V55.0818C26 56.1864 26.8954 57.0818 28 57.0818H34.9609C36.0655 57.0818 36.9609 56.1864 36.9609 55.0818V16.793ZM36.9609 2C36.9609 0.895432 36.0655 0 34.9609 0H28C26.8954 0 26 0.895431 26 2V7.78837C26 8.89294 26.8954 9.78837 28 9.78837H34.9609C36.0655 9.78837 36.9609 8.89294 36.9609 7.78837V2Z" fill="white"/>
</svg>
