<svg width="58" height="58" viewBox="0 0 58 58" fill="none" xmlns="http://www.w3.org/2000/svg">
<path d="M37.8886 26.0882L38.7431 26.5224L39.4178 25.8476L35.1193 23.7573L34.3918 24.4849L36.4512 28.8143L37.1216 28.1438L36.6923 27.2846L37.8886 26.0882ZM37.1611 25.7202L36.3285 26.5528L35.4959 24.8881L37.1611 25.7202Z" fill="white"/>
<path d="M38.6116 21.8418C38.3134 22.1399 38.2307 22.4775 38.3444 22.8898L37.9934 22.5388L37.38 23.1522L40.7019 26.4741L41.3153 25.8607L40.0795 24.6249C40.4917 24.7385 40.8246 24.651 41.1227 24.3529C41.6924 23.7832 41.5782 22.8284 40.8593 22.1095C40.1627 21.4129 39.225 21.2284 38.6116 21.8418ZM38.9844 22.4951C39.2954 22.1841 39.8037 22.2806 40.2549 22.7319C40.6843 23.1613 40.7723 23.6781 40.4698 23.9805C40.1631 24.2872 39.6544 24.1998 39.2117 23.7571C38.7695 23.3149 38.6777 22.8018 38.9844 22.4951Z" fill="white"/>
<path d="M40.7367 19.7956L40.1233 20.409L42.4899 22.7756L43.1033 22.1622L40.7367 19.7956ZM39.9089 18.9678L39.2955 19.5812L39.8432 20.129L40.4566 19.5156L39.9089 18.9678Z" fill="white"/>
<path d="M29.0469 2L56.0937 29.0469L29.0469 56.0937L2 29.0469L29.0469 2Z" stroke="#3B82F6" stroke-width="2.25"/>
<path d="M17.9887 38.7186L20.5072 36.2001C21.4879 35.2194 21.8762 34.3709 21.789 33.4171C21.6998 32.304 21.0997 31.1555 20.1007 30.1566C19.1114 29.1672 17.9628 28.5671 16.8412 28.4693C15.8863 28.3811 15.0561 28.7703 14.0667 29.7597L11.5483 32.2781L17.9887 38.7186ZM18.2102 36.2883L13.9785 32.0567L15.1712 30.8641C16.1691 29.8661 17.3618 30.0693 18.7835 31.4911C20.1975 32.9051 20.4008 34.0977 19.4028 35.0957L18.2102 36.2883Z" fill="#3B82F6"/>
<path d="M21.5314 25.474C20.0733 26.9321 20.1452 28.7872 21.7088 30.3508C23.282 31.924 25.1275 31.9863 26.5943 30.5195C28.0438 29.07 27.9901 27.1967 26.462 25.6686C24.8456 24.0522 23.0251 23.9803 21.5314 25.474ZM22.539 26.4643C23.2197 25.7836 24.2714 25.9514 25.208 26.888C26.0996 27.7796 26.2597 28.8581 25.5963 29.5215C24.9252 30.1926 23.8553 30.0239 22.9455 29.1141C22.0357 28.2043 21.8679 27.1354 22.539 26.4643Z" fill="#3B82F6"/>
<path d="M27.9994 22.8772L24.4743 19.3521L23.2376 20.5888L29.6781 27.0293L30.9148 25.7926L29.3512 24.2289L29.3071 23.1955L32.5493 24.158L33.9989 22.7085L29.2888 21.4804L29.1124 18.0521L27.708 19.4566L27.9994 22.8772Z" fill="#3B82F6"/>
<path d="M38.9282 17.7791L34.1568 13.0077L32.9201 14.2444L35.9064 17.2307C36.4721 17.7964 36.4452 18.5652 35.8451 19.1654C35.3149 19.6955 34.7665 19.6783 34.1923 19.104L31.1264 16.0381L29.8897 17.2748L33.2125 20.5976C34.2632 21.6484 35.4472 21.6666 36.4634 20.6504C37.1086 20.0052 37.3023 19.3341 37.1259 18.4502L37.6915 19.0158L38.9282 17.7791Z" fill="#3B82F6"/>
<path d="M35.1777 41.8059L36.0444 40.9392C36.3819 40.6016 36.6739 40.468 37.0022 40.498C37.3853 40.5287 37.7805 40.7353 38.1243 41.079C38.4648 41.4195 38.6713 41.8148 38.705 42.2008C38.7354 42.5294 38.6014 42.8152 38.2609 43.1557L37.3942 44.0224L35.1777 41.8059ZM36.014 41.7297L37.4704 43.186L37.8808 42.7756C38.2243 42.4321 38.1543 42.0217 37.665 41.5324C37.1784 41.0457 36.7679 40.9758 36.4245 41.3192L36.014 41.7297Z" fill="white"/>
<path d="M39.7359 40.5866C39.2341 41.0885 38.5957 41.0637 38.0575 40.5256C37.5161 39.9842 37.4947 39.3491 37.9995 38.8442C38.4983 38.3454 39.143 38.3639 39.6689 38.8898C40.2252 39.4461 40.25 40.0726 39.7359 40.5866ZM39.3951 40.2399C39.6293 40.0056 39.5716 39.6437 39.2493 39.3213C38.9424 39.0145 38.5712 38.9594 38.3429 39.1877C38.112 39.4187 38.17 39.7869 38.4832 40.1C38.7963 40.4131 39.1641 40.4708 39.3951 40.2399Z" fill="white"/>
<path d="M40.6296 38.3607L41.8427 39.5738L41.4171 39.9995L39.2006 37.783L39.6262 37.3573L40.1643 37.8955L40.52 37.9106L40.1888 36.7948L40.6876 36.2959L41.1103 37.9169L42.2901 37.9776L41.8068 38.461L40.6296 38.3607Z" fill="white"/>
<path d="M42.3841 34.5995L44.0262 36.2416L43.6005 36.6672L42.5728 35.6394C42.3781 35.4448 42.1135 35.454 41.907 35.6605C41.7245 35.843 41.7305 36.0317 41.9281 36.2293L42.9832 37.2845L42.5576 37.7101L41.4141 36.5665C41.0525 36.2049 41.0462 35.7975 41.3959 35.4477C41.618 35.2257 41.8489 35.159 42.1531 35.2197L41.9585 35.0251L42.3841 34.5995Z" fill="white"/>
</svg>
