<svg width="169" height="58" viewBox="0 0 169 58" fill="none" xmlns="http://www.w3.org/2000/svg">
<path d="M0 40.8877H10.2617C14.2578 40.8877 16.7773 39.9502 18.543 37.8291C20.6289 35.3799 21.7461 31.8174 21.7461 27.747C21.7461 23.7158 20.6289 20.1533 18.543 17.6689C16.7773 15.5439 14.293 14.6455 10.2617 14.6455H0V40.8877ZM5.40234 36.3877V19.1455H10.2617C14.3281 19.1455 16.3438 21.9892 16.3438 27.7822C16.3438 33.5439 14.3281 36.3877 10.2617 36.3877H5.40234Z" fill="#3B82F6"/>
<path d="M34.2008 21.122C28.2594 21.122 24.6266 25.0478 24.6266 31.4189C24.6266 37.8291 28.2594 41.7158 34.236 41.7158C40.1422 41.7158 43.8492 37.79 43.8492 31.5634C43.8492 24.9775 40.2867 21.122 34.2008 21.122ZM34.236 25.1924C37.0094 25.1924 38.8102 27.6767 38.8102 31.4931C38.8102 35.1259 36.9391 37.6494 34.236 37.6494C31.5016 37.6494 29.6657 35.1259 29.6657 31.4189C29.6657 27.7119 31.5016 25.1924 34.236 25.1924Z" fill="#3B82F6"/>
<path d="M52.6681 29.0088V14.6455H47.629V40.8877H52.6681V34.5166L54.6837 32.3213L59.3282 40.8877H65.2345L58.1407 28.79L64.7657 21.4463H59.0431L52.6681 29.0088Z" fill="#3B82F6"/>
<path d="M85.3198 40.8877V21.4463H80.2808V33.6142C80.2808 35.9189 78.6597 37.4306 76.2144 37.4306C74.0542 37.4306 72.9722 36.2783 72.9722 33.9384V21.4463H67.9331V34.9853C67.9331 39.2666 70.3081 41.7158 74.4487 41.7158C77.0776 41.7158 78.8394 40.7431 80.2808 38.583V40.8877H85.3198Z" fill="#3B82F6"/>
<path d="M168.383 28.6377L139.922 57.0986L130.051 47.2275H132.879L139.922 54.2705L165.555 28.6377L139.922 3.00488L125.699 17.2275H122.871L139.922 0.176758L168.383 28.6377Z" fill="#3B82F6"/>
<path d="M105.133 35.5947L106.859 40.8877H112.402L103.332 14.6455H97.3555L88.0312 40.8877H93.5391L95.3047 35.5947H105.133ZM103.656 31.0947H96.8164L100.234 20.8369L103.656 31.0947Z" fill="white"/>
<path d="M125.545 21.122C123.096 21.122 121.369 22.1689 120.143 24.3291V21.4463H115.104V48.7353H120.143V38.583C121.369 40.7431 123.096 41.7509 125.545 41.7509C130.225 41.7509 133.678 37.3603 133.678 31.4541C133.678 25.7314 130.584 21.122 125.545 21.122ZM124.393 25.3369C126.948 25.3369 128.639 27.8213 128.639 31.5283C128.639 35.0556 126.877 37.54 124.393 37.54C121.873 37.54 120.143 35.0908 120.143 31.4541C120.143 27.8213 121.873 25.3369 124.393 25.3369Z" fill="white"/>
<path d="M142.679 21.4463H137.64V40.8877H142.679V21.4463ZM142.679 14.6455H137.64V19.1455H142.679V14.6455Z" fill="white"/>
</svg>
